# Blender v3.5.0 OBJ File: 'body.blend'
# www.blender.org
mtllib body.mtl
o Cube
v -2.229348 6.317837 2.229348
v -1.623583 -5.545630 1.623583
v -2.229348 6.317837 -2.229348
v -1.623583 -5.545630 -1.623583
v 2.229348 6.317837 2.229348
v 1.623583 -5.545630 1.623583
v 2.229348 6.317837 -2.229348
v 1.623583 -5.545630 -1.623583
v -1.623583 0.000000 1.623583
v 1.623583 0.000000 -1.623583
v -1.623583 0.000000 -1.623583
v 1.623583 0.000000 1.623583
v 1.623583 2.772815 -1.623583
v -1.623583 2.772815 1.623583
v -1.623583 2.772815 -1.623583
v 1.623583 2.772815 1.623583
v 2.229348 2.790146 -2.229348
v -2.229348 2.790146 2.229348
v -2.229348 2.790146 -2.229348
v 2.229348 2.790146 2.229348
vt 0.366532 0.000000
vt 0.000000 0.366532
vt 0.000000 0.000000
vt 0.851838 0.633468
vt 0.936740 0.266937
vt 0.936740 0.633468
vt 0.766937 0.633468
vt 0.851838 0.266937
vt 0.851838 0.633468
vt 0.633468 0.000000
vt 0.366532 0.266937
vt 0.366532 0.000000
vt 0.766937 1.000000
vt 0.851838 0.633468
vt 0.851838 1.000000
vt 0.851838 1.000000
vt 0.936740 0.633468
vt 0.936740 1.000000
vt 0.633468 0.800810
vt 0.766937 0.533873
vt 0.766937 0.800810
vt 0.433266 0.800810
vt 0.566734 0.533873
vt 0.566734 0.800810
vt 0.633468 0.533873
vt 0.766937 0.266937
vt 0.766937 0.533873
vt 0.433266 0.533873
vt 0.566734 0.266937
vt 0.566734 0.800810
vt 0.633468 0.533873
vt 0.366532 0.800810
vt 0.566734 0.533873
vt 0.633468 0.266937
vt 0.366532 0.533873
vt 0.433266 0.266937
vt 0.049798 0.416329
vt 0.366532 0.366532
vt 0.316734 0.416329
vt 0.366532 0.733063
vt 0.316734 0.683266
vt 0.049798 0.683266
vt 0.000000 0.366532
vt 0.000000 0.733063
vt 0.366532 0.366532
vt 0.851838 0.266937
vt 0.766937 0.266937
vt 0.633468 0.266937
vt 0.766937 0.633468
vt 0.851838 0.633468
vt 0.566734 0.533873
vt 0.566734 0.266937
vt 0.366532 0.266937
vn 0.0000 1.0000 0.0000
vn 0.0000 0.0000 -1.0000
vn 1.0000 0.0000 0.0000
vn 0.0000 -1.0000 0.0000
vn -1.0000 0.0000 0.0000
vn 0.0000 0.0000 1.0000
vn 0.0000 -0.9996 0.0286
vn -0.0286 -0.9996 0.0000
vn 0.0286 -0.9996 0.0000
vn 0.0000 -0.9996 -0.0286
usemtl Material
s off
f 5/1/1 3/2/1 1/3/1
f 3/4/2 17/5/2 19/6/2
f 7/7/3 20/8/3 17/9/3
f 2/10/4 8/11/4 6/12/4
f 1/13/5 19/14/5 18/15/5
f 5/16/6 18/17/6 20/18/6
f 12/19/6 2/20/6 6/21/6
f 9/22/5 4/23/5 2/24/5
f 10/25/3 6/26/3 8/27/3
f 11/28/2 8/29/2 4/23/2
f 16/30/6 9/31/6 12/19/6
f 14/32/5 11/28/5 9/22/5
f 13/33/3 12/34/3 10/25/3
f 15/35/2 10/36/2 11/28/2
f 16/37/7 18/38/7 14/39/7
f 14/39/8 19/40/8 15/41/8
f 13/42/9 20/43/9 16/37/9
f 15/41/10 17/44/10 13/42/10
f 5/1/1 7/45/1 3/2/1
f 3/4/2 7/46/2 17/5/2
f 7/7/3 5/47/3 20/8/3
f 2/10/4 4/48/4 8/11/4
f 1/13/5 3/49/5 19/14/5
f 5/16/6 1/50/6 18/17/6
f 12/19/6 9/31/6 2/20/6
f 9/22/5 11/28/5 4/23/5
f 10/25/3 12/34/3 6/26/3
f 11/28/2 10/36/2 8/29/2
f 16/30/6 14/51/6 9/31/6
f 14/32/5 15/35/5 11/28/5
f 13/33/3 16/52/3 12/34/3
f 15/35/2 13/53/2 10/36/2
f 16/37/7 20/43/7 18/38/7
f 14/39/8 18/38/8 19/40/8
f 13/42/9 17/44/9 20/43/9
f 15/41/10 19/40/10 17/44/10
